# xmcd
#
# Track frame offsets: 
#        150
#        21598
#        40868
#        61069
#        79895
#        102996
#        123154
#        148423
#        168607
#        186614
#        203602
#        219345
#
# Disc length: 3186 seconds
#
# Revision: 2
# Processed by: cddbd v1.5.2PL0 Copyright (c) Steve Scherf et al.
# Submitted via: ExactAudioCopy v1.0b3
#
DISCID=b20c700c
DTITLE=雷婷 - 不是因為寂寞才想你
DYEAR=2009
DGENRE=Pop
TTITLE0=01.夜上海
TTITLE1=02.不是因為寂寞才想你
TTITLE2=03.愛的迷霧
TTITLE3=04.我把愛情想得太完美
TTITLE4=05.銀白色的月光
TTITLE5=06.孤獨無罪
TTITLE6=07.你失去了最愛的人
TTITLE7=08.你就是我最想要的人
TTITLE8=09.愛上你是一個錯
TTITLE9=10.想起
TTITLE10=11.擦肩而過
TTITLE11=12.悲傷的雙曲線
EXTD=
EXTT0=
EXTT1=
EXTT2=
EXTT3=
EXTT4=
EXTT5=
EXTT6=
EXTT7=
EXTT8=
EXTT9=
EXTT10=
EXTT11=
PLAYORDER=
